<svg width="24" height="24" viewBox="0 0 24 24" fill="none" xmlns="http://www.w3.org/2000/svg">
  <path d="M12 15C13.6569 15 15 13.6569 15 12C15 10.3431 13.6569 9 12 9C10.3431 9 9 10.3431 9 12C9 13.6569 10.3431 15 12 15Z" stroke="#999999" stroke-width="2" stroke-linecap="round" stroke-linejoin="round"/>
  <path d="M19.4 15C19.2729 15.3413 19.0847 15.6568 18.846 15.9273C18.6072 16.1978 18.3232 16.4193 18 16.5798V19C18 19.5304 17.7893 20.0391 17.4142 20.4142C17.0391 20.7893 16.5304 21 16 21H8C7.46957 21 6.96086 20.7893 6.58579 20.4142C6.21071 20.0391 6 19.5304 6 19V16.5798C5.67684 16.4193 5.39282 16.1978 5.15403 15.9273C4.91524 15.6568 4.72707 15.3413 4.6 15M5.6 9C5.72707 8.65865 5.91524 8.34317 6.15403 8.07265C6.39282 7.80213 6.67684 7.58065 7 7.42022V5C7 4.46957 7.21071 3.96086 7.58579 3.58579C7.96086 3.21071 8.46957 3 9 3H15C15.5304 3 16.0391 3.21071 16.4142 3.58579C16.7893 3.96086 17 4.46957 17 5V7.42022C17.3232 7.58065 17.6072 7.80213 17.846 8.07265C18.0847 8.34317 18.2729 8.65865 18.4 9" stroke="#999999" stroke-width="2" stroke-linecap="round" stroke-linejoin="round"/>
  <path d="M12 15V21" stroke="#999999" stroke-width="2" stroke-linecap="round" stroke-linejoin="round"/>
  <path d="M12 3V9" stroke="#999999" stroke-width="2" stroke-linecap="round" stroke-linejoin="round"/>
  <path d="M3 12H9" stroke="#999999" stroke-width="2" stroke-linecap="round" stroke-linejoin="round"/>
  <path d="M15 12H21" stroke="#999999" stroke-width="2" stroke-linecap="round" stroke-linejoin="round"/>
</svg>